<?xml version="1.0" standalone="no"?>
<!DOCTYPE svg PUBLIC "-//W3C//DTD SVG 20010904//EN"
 "http://www.w3.org/TR/2001/REC-SVG-20010904/DTD/svg10.dtd">
<svg version="1.0" xmlns="http://www.w3.org/2000/svg"
 width="400.000000pt" height="400.000000pt" viewBox="0 0 400.000000 400.000000"
 preserveAspectRatio="xMidYMid meet">
<metadata>
Created by potrace 1.11, written by Peter Selinger 2001-2013
</metadata>
<g transform="translate(0.000000,400.000000) scale(0.100000,-0.100000)"
fill="#000000" stroke="none">
<path d="M1977 3764 c-1 -1 -38 -4 -82 -7 -354 -27 -704 -188 -960 -442 -76
-76 -208 -235 -201 -242 1 -2 35 6 75 17 56 16 79 28 99 52 31 36 143 149 190
190 57 50 194 137 286 182 465 228 1019 194 1446 -88 113 -75 253 -198 317
-280 16 -20 44 -35 98 -51 l75 -23 -12 21 c-25 48 -107 147 -191 229 -248 242
-591 402 -932 434 -61 6 -204 12 -208 8z"/>
<path d="M1657 3412 c-16 -9 -31 -29 -34 -44 -5 -23 -8 -25 -24 -15 -14 9 -24
9 -37 1 -22 -14 -22 -48 1 -52 9 -2 17 1 17 7 0 6 -7 8 -15 5 -8 -4 -15 -2
-15 4 0 5 7 15 15 22 21 18 45 -4 45 -41 0 -22 -7 -32 -26 -41 -22 -10 -39 -8
-109 17 -73 25 -86 27 -113 16 -58 -24 -57 -108 0 -125 21 -6 19 -9 -22 -31
-74 -40 -172 -28 -200 24 -12 23 -13 71 -2 87 12 19 44 32 64 26 29 -7 21 -57
-10 -56 -14 0 -19 -3 -13 -9 16 -16 44 -3 52 25 5 20 2 31 -11 43 -28 25 -88
4 -96 -33 -3 -15 -7 -32 -9 -38 -7 -23 25 -74 57 -90 71 -37 147 -18 268 68
63 44 119 57 156 37 20 -10 25 -19 21 -42 -3 -20 2 -32 17 -42 27 -19 39 -5
26 29 -16 43 -12 54 30 85 44 32 100 45 145 33 22 -6 31 -16 36 -40 5 -26 1
-37 -22 -62 -27 -28 -39 -70 -21 -70 12 0 42 34 57 63 9 18 18 22 50 20 72 -5
90 -5 124 0 46 6 71 -2 71 -22 0 -17 39 -61 53 -61 18 0 4 43 -22 70 -23 25
-27 36 -22 62 5 23 14 34 32 39 63 16 149 -14 183 -65 13 -21 13 -26 1 -36
-17 -14 -20 -46 -5 -55 18 -11 40 16 40 48 0 37 24 56 72 57 28 0 53 -11 105
-47 126 -86 196 -105 265 -71 46 22 60 47 56 100 -2 31 -10 46 -31 62 -26 19
-30 19 -55 5 -41 -23 -33 -79 11 -79 20 1 20 2 -6 16 -26 14 -27 17 -14 37 25
39 73 21 83 -30 12 -64 -36 -113 -111 -113 -39 0 -135 37 -135 52 0 5 4 7 8 4
16 -10 52 34 52 64 0 31 -39 70 -70 70 -9 0 -49 -11 -88 -25 -39 -14 -78 -25
-86 -25 -22 0 -46 29 -46 55 0 31 33 51 49 31 14 -17 -2 -32 -21 -20 -7 4 -8
3 -4 -4 4 -7 13 -12 21 -12 20 0 28 32 11 49 -12 12 -20 12 -41 3 -22 -10 -25
-9 -25 7 0 29 -56 71 -93 71 -55 0 -131 -59 -157 -122 -7 -14 -23 -29 -36 -32
-14 -4 -42 -22 -63 -41 l-38 -35 -24 27 c-13 14 -43 34 -65 44 -26 12 -44 28
-48 41 -14 52 -99 118 -151 118 -16 0 -43 -8 -58 -18z m155 -49 c54 -53 51
-68 -17 -69 -45 0 -55 3 -55 17 0 9 -7 22 -15 29 -16 14 -45 7 -45 -11 0 -9 3
-9 14 0 10 9 16 8 26 -4 15 -18 -2 -45 -29 -45 -51 0 -76 73 -38 108 45 41
101 32 159 -25z m545 22 c12 -13 20 -32 18 -42 -2 -10 -4 -23 -4 -30 -1 -7
-11 -17 -22 -24 -26 -13 -69 2 -69 25 0 19 25 27 39 13 8 -8 11 -8 11 1 0 19
-28 26 -45 12 -8 -7 -15 -20 -15 -29 0 -13 -11 -16 -59 -16 l-59 -1 13 26 c7
14 26 37 42 52 54 52 111 57 150 13z m-690 -116 c7 -3 4 -14 -11 -31 -20 -26
-23 -27 -44 -13 l-21 16 20 20 c11 11 17 25 13 32 -4 7 1 5 12 -4 10 -9 24
-18 31 -20z m718 21 c-3 -5 3 -18 14 -29 20 -20 19 -20 -3 -34 -20 -14 -24
-13 -44 10 -26 29 -27 33 -8 33 7 0 19 7 26 15 14 17 25 20 15 5z m-875 -52
c0 -4 -6 -8 -14 -8 -7 0 -25 -9 -40 -21 l-26 -20 0 24 c0 30 -28 43 -48 23
-15 -15 -9 -36 11 -36 9 0 9 2 0 8 -8 5 -9 12 -2 22 8 13 10 13 18 1 13 -20
-4 -51 -27 -51 -35 0 -55 24 -48 58 11 46 46 54 119 29 31 -12 57 -25 57 -29z
m1156 16 c9 -13 13 -32 9 -43 -9 -28 -52 -38 -72 -18 -17 17 -10 53 8 42 6 -4
8 -13 5 -21 -3 -8 -1 -14 3 -14 19 0 20 30 1 40 -14 7 -23 6 -34 -6 -9 -9 -14
-20 -11 -25 9 -14 -1 -11 -41 13 l-37 22 58 21 c66 25 90 23 111 -11z m-696
-36 c0 -4 -17 -8 -39 -8 -33 0 -39 3 -43 25 -3 13 -3 27 0 30 7 6 82 -36 82
-47z m152 19 c-4 -31 -5 -32 -43 -29 -43 5 -42 14 5 43 41 25 43 24 38 -14z
m-472 -90 c0 -5 -4 -5 -10 -2 -5 3 -10 14 -10 23 0 15 2 15 10 2 5 -8 10 -19
10 -23z m518 -7 c-2 -7 -10 1 -17 16 -12 27 -11 28 4 12 10 -9 16 -21 13 -28z
m209 15 c-4 -8 -11 -15 -17 -15 -7 0 -7 6 0 21 13 23 26 19 17 -6z m-517 6 c0
-5 -6 -14 -14 -20 -12 -10 -13 -8 -9 8 5 21 23 30 23 12z"/>
<path d="M1240 3040 c-352 -73 -625 -325 -695 -644 -26 -119 -17 -218 29 -312
46 -92 103 -144 157 -144 29 0 42 6 58 26 21 27 27 60 13 80 -4 6 -27 24 -52
41 -109 75 -125 105 -124 233 0 78 5 106 26 158 76 185 205 321 393 415 124
62 213 81 375 81 190 -1 337 -76 434 -223 68 -104 89 -174 92 -321 4 -154 -11
-231 -71 -355 -93 -192 -230 -300 -445 -350 -66 -15 -294 -16 -317 -2 -8 5 0
32 24 85 48 106 95 253 144 451 23 91 43 177 45 191 10 54 85 332 99 366 26
62 21 66 -53 50 -13 -3 -31 -7 -40 -10 -19 -5 -75 -14 -142 -22 -56 -7 -60
-10 -60 -40 0 -19 4 -23 23 -20 29 5 47 -11 47 -40 0 -14 -25 -124 -55 -247
-31 -122 -57 -229 -59 -237 -73 -297 -141 -483 -187 -513 -13 -9 -53 -19 -87
-23 -54 -6 -65 -11 -74 -30 -6 -13 -14 -24 -18 -24 -9 0 -65 142 -81 205 -16
67 -22 73 -72 70 -49 -3 -49 -5 -26 -90 61 -219 189 -447 347 -616 310 -331
722 -504 1177 -494 77 2 150 6 162 8 11 3 43 9 70 13 26 5 50 8 53 9 113 24
252 71 359 122 214 103 425 277 571 473 107 143 220 387 254 546 l7 30 -48 -1
c-54 -2 -53 0 -88 -115 -58 -187 -174 -383 -319 -535 l-85 -90 52 81 c29 45
66 112 81 150 16 38 35 83 42 99 19 44 68 211 109 368 46 181 61 207 115 207
28 0 40 15 40 50 0 17 -13 18 -227 15 -126 -2 -236 -3 -246 -4 -19 -1 -38 -38
-30 -58 4 -9 25 -12 68 -10 117 4 134 -24 101 -160 -3 -13 -8 -31 -10 -41 -21
-94 -24 -98 -84 -125 -88 -40 -145 -50 -235 -44 -90 5 -138 25 -198 81 -88 80
-111 144 -115 316 -3 116 0 148 21 226 20 78 82 227 108 259 4 6 22 31 40 56
76 110 170 190 290 249 210 103 411 71 483 -76 23 -47 27 -69 29 -157 l2 -102
35 -3 35 -3 2 55 c1 30 4 63 5 73 2 10 7 41 10 68 4 28 13 75 21 105 7 30 16
69 18 86 l5 32 -60 6 c-32 4 -98 16 -146 27 -51 12 -139 23 -213 26 -151 6
-244 -13 -365 -77 -275 -144 -467 -384 -526 -655 -16 -74 -17 -270 -2 -341 28
-135 124 -264 237 -318 73 -34 94 -38 224 -42 117 -3 200 14 285 57 l37 19
-15 -52 c-9 -28 -17 -59 -19 -67 -20 -92 -123 -313 -172 -371 -45 -52 -81 -70
-141 -70 -54 0 -72 11 -155 92 -58 58 -88 67 -132 43 -81 -43 -33 -162 85
-213 48 -20 224 -24 269 -6 106 43 8 -24 -115 -79 -211 -94 -378 -131 -599
-131 -82 -1 -173 2 -201 6 -282 41 -521 144 -736 317 -138 111 -289 293 -361
438 l-27 52 203 -4 c111 -3 218 -7 237 -10 83 -12 286 -7 365 9 58 13 82 20
93 29 7 5 16 7 20 3 4 -4 7 -84 8 -177 0 -93 3 -172 7 -176 4 -4 51 -7 105 -7
90 -1 97 -2 97 -21 0 -17 -7 -20 -48 -20 -31 0 -51 -5 -57 -15 -14 -23 -2 -30
53 -31 51 -1 51 -1 14 -9 -39 -7 -68 -35 -60 -57 4 -10 -18 -13 -96 -13 l-102
0 3 -92 3 -93 203 0 202 -1 0 93 0 93 -99 0 c-94 0 -99 1 -94 20 7 25 13 29
53 34 17 2 37 9 43 15 6 6 48 11 100 11 77 0 88 2 83 16 -3 9 -6 19 -6 24 0 4
-17 7 -37 5 -43 -3 -76 11 -70 28 2 8 37 12 108 13 l104 1 3 186 2 187 -242 0
-242 0 68 35 c194 99 344 291 407 521 28 102 30 281 5 369 -57 193 -219 352
-421 411 -90 26 -98 27 -260 29 -113 2 -171 -1 -235 -15z"/>
<path d="M2280 1465 c0 -77 3 -105 13 -106 6 0 54 -1 105 -2 l92 -2 0 108 0
107 -105 0 -105 0 0 -105z"/>
<path d="M2176 1218 c12 -5 27 -20 32 -32 8 -16 11 -17 11 -4 1 21 -26 48 -47
47 -13 0 -12 -3 4 -11z"/>
<path d="M2092 1199 c-50 -10 -61 -33 -62 -122 0 -68 3 -81 23 -101 14 -14 33
-22 48 -21 13 1 31 3 40 4 9 0 22 15 30 33 13 33 16 141 4 170 -12 29 -47 45
-83 37z"/>
<path d="M2170 1189 c7 -11 14 -18 17 -15 8 8 -5 36 -17 36 -7 0 -7 -6 0 -21z"/>
<path d="M965 637 c-46 -15 -90 -52 -109 -92 -27 -56 -9 -135 30 -135 18 0 18
29 0 36 -22 8 -28 50 -12 88 28 68 136 111 198 79 46 -22 61 -56 56 -119 -6
-76 -44 -115 -118 -122 -50 -5 -52 -4 -41 15 12 24 63 215 58 220 -2 2 -18 0
-36 -3 -21 -4 -29 -10 -23 -16 6 -6 6 -23 0 -45 -5 -20 -11 -43 -13 -52 -7
-35 -25 -97 -32 -107 -5 -6 -17 -14 -27 -17 -32 -12 -13 -17 75 -19 90 -1 126
10 165 54 34 37 44 63 44 116 0 52 -22 91 -63 113 -27 15 -114 18 -152 6z"/>
<path d="M1998 616 c-10 -14 -18 -34 -18 -45 0 -12 -7 -21 -15 -21 -18 0 -20
-29 -2 -36 9 -3 13 -25 12 -74 -1 -77 5 -96 29 -87 13 5 16 20 14 75 -2 73 6
97 28 88 8 -3 14 0 14 6 0 7 5 6 15 -2 8 -7 16 -9 17 -4 0 5 4 -26 8 -69 7
-84 15 -97 62 -97 32 0 34 22 3 30 -17 5 -20 16 -23 72 -3 63 -2 65 20 64 14
-1 24 5 26 17 3 13 -3 17 -22 17 -21 0 -26 5 -26 26 0 19 -5 25 -17 22 -10 -2
-19 -13 -21 -25 -4 -26 -19 -33 -55 -26 -43 8 -30 63 16 63 30 0 13 25 -19 28
-21 1 -34 -5 -46 -22z"/>
<path d="M1310 608 c-18 -13 -42 -35 -53 -49 -21 -29 -33 -103 -23 -142 8 -34
52 -60 97 -59 l38 2 -11 -30 c-14 -42 -44 -57 -68 -35 -20 18 -40 13 -40 -11
0 -17 35 -32 67 -30 50 4 107 87 112 163 1 6 8 19 17 27 28 28 12 33 -85 27
-11 -1 -11 -4 -1 -16 7 -8 16 -12 21 -9 12 7 11 -13 -1 -37 -14 -25 -62 -25
-85 1 -55 60 32 210 115 199 19 -3 27 -13 35 -43 13 -45 20 -40 30 22 l7 42
-70 0 c-55 0 -76 -5 -102 -22z"/>
<path d="M1611 531 c-35 -35 -25 -64 31 -92 54 -28 49 -54 -10 -53 -34 1 -42
-2 -40 -15 6 -33 100 -25 119 10 18 34 3 64 -41 84 -22 10 -40 21 -40 24 1 20
21 32 46 29 21 -2 29 1 29 12 0 25 -70 25 -94 1z"/>
<path d="M1800 543 c-61 -24 -73 -120 -23 -175 26 -28 96 -24 128 7 14 14 25
31 26 38 0 7 2 20 4 31 5 25 -10 61 -35 86 -19 19 -67 26 -100 13z m73 -41
c40 -45 16 -122 -37 -122 -29 0 -43 16 -49 55 -9 64 48 109 86 67z"/>
<path d="M2213 528 c26 -112 52 -178 68 -178 17 0 46 57 56 110 2 13 6 26 7
28 2 2 13 -29 25 -67 17 -57 26 -71 41 -71 11 0 21 5 21 10 2 13 4 21 12 40 3
8 13 40 23 70 9 30 19 61 22 68 2 7 -4 12 -16 12 -16 0 -24 -11 -36 -54 -9
-30 -16 -59 -16 -65 0 -23 -20 -10 -26 17 -12 53 -32 97 -47 100 -11 2 -21
-17 -37 -69 -15 -52 -24 -69 -31 -58 -5 8 -9 22 -9 32 0 42 -25 97 -44 97 -14
0 -17 -5 -13 -22z"/>
<path d="M2533 543 c-7 -2 -13 -11 -13 -18 0 -10 12 -13 43 -12 35 2 42 -1 42
-17 0 -13 -8 -20 -23 -21 -32 -2 -76 -38 -80 -64 -2 -13 4 -31 14 -42 19 -21
73 -26 92 -7 9 9 12 9 12 0 0 -7 8 -12 19 -12 17 0 18 7 15 81 -3 96 -18 119
-73 118 -20 0 -42 -3 -48 -6z m83 -118 c-7 -37 -15 -45 -42 -45 -35 0 -43 29
-15 52 35 27 62 24 57 -7z"/>
<path d="M2707 543 c-3 -7 -2 -165 2 -185 0 -5 8 -8 16 -8 16 0 17 3 19 70 3
75 16 97 58 91 3 0 5 7 4 17 -4 23 -30 27 -50 7 -14 -15 -16 -15 -16 -1 0 16
-25 22 -33 9z"/>
<path d="M2869 543 c-8 -2 -23 -17 -32 -32 -29 -49 -19 -117 22 -148 30 -23
141 -10 118 14 -5 4 -24 6 -43 4 -37 -3 -74 20 -74 46 0 10 12 13 43 12 90 -3
90 -3 84 39 -10 58 -54 83 -118 65z m69 -35 c25 -25 13 -38 -33 -38 -49 0 -50
1 -35 31 12 21 50 25 68 7z"/>
</g>
</svg>
